<mxfile host="app.diagrams.net" modified="2020-08-04T05:44:06.501Z" agent="5.0 (Windows NT 10.0; Win64; x64) AppleWebKit/537.36 (KHTML, like Gecko) Chrome/84.0.4147.105 Safari/537.36" etag="F-XJSdgwMAabJnaFNcZA" version="13.5.9" type="github">
  <diagram name="Page-1" id="13e1069c-82ec-6db2-03f1-153e76fe0fe0">
    <mxGraphModel dx="868" dy="482" grid="1" gridSize="10" guides="1" tooltips="1" connect="1" arrows="1" fold="1" page="1" pageScale="1" pageWidth="1100" pageHeight="850" background="#ffffff" math="0" shadow="0">
      <root>
        <mxCell id="0" />
        <mxCell id="1" parent="0" />
        <mxCell id="86tsJE7q6GDOUqFHb6td-1" value="If Employee Records are not Empty" style="shape=umlFrame;whiteSpace=wrap;html=1;width=87;height=56;" vertex="1" parent="1">
          <mxGeometry x="38" y="370" width="882" height="390" as="geometry" />
        </mxCell>
        <mxCell id="86tsJE7q6GDOUqFHb6td-2" value="Xceed Core Service" style="shape=umlLifeline;perimeter=lifelinePerimeter;whiteSpace=wrap;html=1;container=1;collapsible=0;recursiveResize=0;outlineConnect=0;rounded=1;shadow=0;comic=0;labelBackgroundColor=none;strokeWidth=1;fontFamily=Verdana;fontSize=12;align=center;fillColor=#d5e8d4;strokeColor=#82b366;" vertex="1" parent="1">
          <mxGeometry x="320" y="80" width="100" height="1598" as="geometry" />
        </mxCell>
        <mxCell id="86tsJE7q6GDOUqFHb6td-3" value="" style="html=1;points=[];perimeter=orthogonalPerimeter;rounded=0;shadow=0;comic=0;labelBackgroundColor=none;strokeWidth=1;fontFamily=Verdana;fontSize=12;align=center;" vertex="1" parent="86tsJE7q6GDOUqFHb6td-2">
          <mxGeometry x="44.75" y="321" width="10" height="79" as="geometry" />
        </mxCell>
        <mxCell id="86tsJE7q6GDOUqFHb6td-4" value="" style="html=1;points=[];perimeter=orthogonalPerimeter;" vertex="1" parent="86tsJE7q6GDOUqFHb6td-2">
          <mxGeometry x="44.75" y="67" width="10" height="173" as="geometry" />
        </mxCell>
        <mxCell id="86tsJE7q6GDOUqFHb6td-44" value="" style="html=1;points=[];perimeter=orthogonalPerimeter;" vertex="1" parent="86tsJE7q6GDOUqFHb6td-2">
          <mxGeometry x="50" y="213" width="10" height="20" as="geometry" />
        </mxCell>
        <mxCell id="86tsJE7q6GDOUqFHb6td-45" value="DecryptResponse(PGPKey)" style="edgeStyle=orthogonalEdgeStyle;html=1;align=left;spacingLeft=2;endArrow=block;rounded=0;entryX=1;entryY=0;" edge="1" target="86tsJE7q6GDOUqFHb6td-44" parent="86tsJE7q6GDOUqFHb6td-2">
          <mxGeometry relative="1" as="geometry">
            <mxPoint x="55" y="193" as="sourcePoint" />
            <Array as="points">
              <mxPoint x="80" y="193" />
            </Array>
          </mxGeometry>
        </mxCell>
        <mxCell id="86tsJE7q6GDOUqFHb6td-6" value="Xceed DB Service" style="shape=umlLifeline;perimeter=lifelinePerimeter;whiteSpace=wrap;html=1;container=1;collapsible=0;recursiveResize=0;outlineConnect=0;rounded=1;shadow=0;comic=0;labelBackgroundColor=none;strokeWidth=1;fontFamily=Verdana;fontSize=12;align=center;fillColor=#d5e8d4;strokeColor=#82b366;" vertex="1" parent="1">
          <mxGeometry x="540" y="80" width="100" height="1599" as="geometry" />
        </mxCell>
        <mxCell id="86tsJE7q6GDOUqFHb6td-8" value="" style="html=1;points=[];perimeter=orthogonalPerimeter;" vertex="1" parent="86tsJE7q6GDOUqFHb6td-6">
          <mxGeometry x="46" y="321" width="10" height="79" as="geometry" />
        </mxCell>
        <mxCell id="86tsJE7q6GDOUqFHb6td-9" value="Xceed DB" style="shape=umlLifeline;perimeter=lifelinePerimeter;whiteSpace=wrap;html=1;container=1;collapsible=0;recursiveResize=0;outlineConnect=0;rounded=1;shadow=0;comic=0;labelBackgroundColor=none;strokeWidth=1;fontFamily=Verdana;fontSize=12;align=center;fillColor=#d5e8d4;strokeColor=#82b366;" vertex="1" parent="1">
          <mxGeometry x="798" y="79" width="100" height="1599" as="geometry" />
        </mxCell>
        <mxCell id="86tsJE7q6GDOUqFHb6td-12" value="" style="html=1;points=[];perimeter=orthogonalPerimeter;" vertex="1" parent="86tsJE7q6GDOUqFHb6td-9">
          <mxGeometry x="45" y="321" width="10" height="79" as="geometry" />
        </mxCell>
        <mxCell id="86tsJE7q6GDOUqFHb6td-11" value="Adani Rest Service" style="shape=umlLifeline;perimeter=lifelinePerimeter;whiteSpace=wrap;html=1;container=1;collapsible=0;recursiveResize=0;outlineConnect=0;rounded=1;shadow=0;comic=0;labelBackgroundColor=none;strokeWidth=1;fontFamily=Verdana;fontSize=12;align=center;fillColor=#fff2cc;strokeColor=#d6b656;" vertex="1" parent="1">
          <mxGeometry x="1050" y="80" width="100" height="1599" as="geometry" />
        </mxCell>
        <mxCell id="86tsJE7q6GDOUqFHb6td-7" value="" style="html=1;points=[];perimeter=orthogonalPerimeter;" vertex="1" parent="86tsJE7q6GDOUqFHb6td-11">
          <mxGeometry x="45" y="95" width="10" height="80" as="geometry" />
        </mxCell>
        <mxCell id="86tsJE7q6GDOUqFHb6td-13" value="Xceed Batch Job" style="shape=umlLifeline;perimeter=lifelinePerimeter;whiteSpace=wrap;html=1;container=1;collapsible=0;recursiveResize=0;outlineConnect=0;rounded=1;shadow=0;comic=0;labelBackgroundColor=none;strokeWidth=1;fontFamily=Verdana;fontSize=12;align=center;fillColor=#d5e8d4;strokeColor=#82b366;" vertex="1" parent="1">
          <mxGeometry x="103" y="79" width="100" height="1594" as="geometry" />
        </mxCell>
        <mxCell id="86tsJE7q6GDOUqFHb6td-14" value="" style="html=1;points=[];perimeter=orthogonalPerimeter;rounded=0;shadow=0;comic=0;labelBackgroundColor=none;strokeWidth=1;fontFamily=Verdana;fontSize=12;align=center;" vertex="1" parent="86tsJE7q6GDOUqFHb6td-13">
          <mxGeometry x="45" y="322" width="10" height="78" as="geometry" />
        </mxCell>
        <mxCell id="86tsJE7q6GDOUqFHb6td-15" value="" style="html=1;points=[];perimeter=orthogonalPerimeter;" vertex="1" parent="86tsJE7q6GDOUqFHb6td-13">
          <mxGeometry x="45" y="71" width="10" height="169" as="geometry" />
        </mxCell>
        <mxCell id="86tsJE7q6GDOUqFHb6td-19" value="&lt;font face=&quot;Helvetica&quot; style=&quot;font-size: 11px&quot;&gt;CreateOrUpdateEmployees()&lt;/font&gt;" style="html=1;verticalAlign=bottom;endArrow=block;entryX=0;entryY=0;labelBackgroundColor=none;fontFamily=Verdana;fontSize=12;edgeStyle=elbowEdgeStyle;elbow=vertical;" edge="1" parent="1" source="86tsJE7q6GDOUqFHb6td-14" target="86tsJE7q6GDOUqFHb6td-3">
          <mxGeometry relative="1" as="geometry">
            <mxPoint x="214.75" y="411" as="sourcePoint" />
          </mxGeometry>
        </mxCell>
        <mxCell id="86tsJE7q6GDOUqFHb6td-22" value="FetchEligibleEmployeeRecords()" style="html=1;verticalAlign=bottom;endArrow=block;" edge="1" parent="1" source="86tsJE7q6GDOUqFHb6td-13" target="86tsJE7q6GDOUqFHb6td-4">
          <mxGeometry width="80" relative="1" as="geometry">
            <mxPoint x="408" y="173" as="sourcePoint" />
            <mxPoint x="488" y="173" as="targetPoint" />
            <Array as="points">
              <mxPoint x="237" y="150" />
            </Array>
          </mxGeometry>
        </mxCell>
        <mxCell id="86tsJE7q6GDOUqFHb6td-23" value="FetchEligibleEmployeeRecords()" style="html=1;verticalAlign=bottom;endArrow=block;" edge="1" parent="1">
          <mxGeometry width="80" relative="1" as="geometry">
            <mxPoint x="374.75" y="175" as="sourcePoint" />
            <mxPoint x="1099.5" y="175" as="targetPoint" />
            <Array as="points">
              <mxPoint x="440" y="175" />
            </Array>
          </mxGeometry>
        </mxCell>
        <mxCell id="86tsJE7q6GDOUqFHb6td-25" value="{EmployeeRecords}" style="html=1;verticalAlign=bottom;endArrow=open;dashed=1;endSize=8;exitX=1;exitY=0.988;exitDx=0;exitDy=0;exitPerimeter=0;" edge="1" parent="1">
          <mxGeometry x="0.0172" relative="1" as="geometry">
            <mxPoint x="1381" y="255.03999999999996" as="sourcePoint" />
            <mxPoint x="1100" y="255" as="targetPoint" />
            <mxPoint as="offset" />
          </mxGeometry>
        </mxCell>
        <mxCell id="86tsJE7q6GDOUqFHb6td-26" value="{EmployeeRecords}" style="html=1;verticalAlign=bottom;endArrow=open;dashed=1;endSize=8;" edge="1" parent="1" source="86tsJE7q6GDOUqFHb6td-11">
          <mxGeometry relative="1" as="geometry">
            <mxPoint x="594" y="255" as="sourcePoint" />
            <mxPoint x="376" y="255" as="targetPoint" />
          </mxGeometry>
        </mxCell>
        <mxCell id="86tsJE7q6GDOUqFHb6td-27" value="{EmployeeRecords}" style="html=1;verticalAlign=bottom;endArrow=open;dashed=1;endSize=8;exitX=1.025;exitY=1.007;exitDx=0;exitDy=0;exitPerimeter=0;" edge="1" parent="1">
          <mxGeometry relative="1" as="geometry">
            <mxPoint x="375" y="320.211" as="sourcePoint" />
            <mxPoint x="153" y="320" as="targetPoint" />
          </mxGeometry>
        </mxCell>
        <mxCell id="86tsJE7q6GDOUqFHb6td-28" value="&lt;span style=&quot;background-color: rgb(248 , 249 , 250)&quot;&gt;CreateOrUpdateEmployees()&lt;/span&gt;" style="html=1;verticalAlign=bottom;endArrow=block;" edge="1" parent="1">
          <mxGeometry width="80" relative="1" as="geometry">
            <mxPoint x="369.75" y="401" as="sourcePoint" />
            <mxPoint x="586" y="401" as="targetPoint" />
            <Array as="points">
              <mxPoint x="401" y="401" />
            </Array>
          </mxGeometry>
        </mxCell>
        <mxCell id="86tsJE7q6GDOUqFHb6td-29" value="&lt;span style=&quot;background-color: rgb(248 , 249 , 250)&quot;&gt;CreateOrUpdateEmployees()&lt;/span&gt;" style="html=1;verticalAlign=bottom;endArrow=block;exitX=0.7;exitY=0;exitDx=0;exitDy=0;exitPerimeter=0;" edge="1" parent="1" source="86tsJE7q6GDOUqFHb6td-8" target="86tsJE7q6GDOUqFHb6td-12">
          <mxGeometry x="-0.293" width="80" relative="1" as="geometry">
            <mxPoint x="714" y="414" as="sourcePoint" />
            <mxPoint x="794" y="414" as="targetPoint" />
            <mxPoint as="offset" />
          </mxGeometry>
        </mxCell>
        <mxCell id="86tsJE7q6GDOUqFHb6td-31" value="Adani SAP PO/PI Middleware" style="shape=umlLifeline;perimeter=lifelinePerimeter;whiteSpace=wrap;html=1;container=1;collapsible=0;recursiveResize=0;outlineConnect=0;rounded=1;shadow=0;comic=0;labelBackgroundColor=none;strokeWidth=1;fontFamily=Verdana;fontSize=12;align=center;fillColor=#fff2cc;strokeColor=#d6b656;" vertex="1" parent="1">
          <mxGeometry x="1326" y="80" width="100" height="1599" as="geometry" />
        </mxCell>
        <mxCell id="86tsJE7q6GDOUqFHb6td-10" value="" style="html=1;points=[];perimeter=orthogonalPerimeter;" vertex="1" parent="86tsJE7q6GDOUqFHb6td-31">
          <mxGeometry x="45" y="95" width="10" height="80" as="geometry" />
        </mxCell>
        <mxCell id="86tsJE7q6GDOUqFHb6td-34" value="Adani Oracle backend" style="shape=umlLifeline;perimeter=lifelinePerimeter;whiteSpace=wrap;html=1;container=1;collapsible=0;recursiveResize=0;outlineConnect=0;rounded=1;shadow=0;comic=0;labelBackgroundColor=none;strokeWidth=1;fontFamily=Verdana;fontSize=12;align=center;fillColor=#fff2cc;strokeColor=#d6b656;" vertex="1" parent="1">
          <mxGeometry x="1640" y="80" width="100" height="1599" as="geometry" />
        </mxCell>
        <mxCell id="86tsJE7q6GDOUqFHb6td-36" value="" style="html=1;points=[];perimeter=orthogonalPerimeter;" vertex="1" parent="86tsJE7q6GDOUqFHb6td-34">
          <mxGeometry x="45" y="95" width="10" height="80" as="geometry" />
        </mxCell>
        <mxCell id="86tsJE7q6GDOUqFHb6td-37" value="FetchEligibleEmployeeRecords()" style="html=1;verticalAlign=bottom;endArrow=block;" edge="1" parent="1" target="86tsJE7q6GDOUqFHb6td-31">
          <mxGeometry width="80" relative="1" as="geometry">
            <mxPoint x="1100" y="175" as="sourcePoint" />
            <mxPoint x="1361" y="175" as="targetPoint" />
            <Array as="points" />
          </mxGeometry>
        </mxCell>
        <mxCell id="86tsJE7q6GDOUqFHb6td-38" value="" style="endArrow=classic;html=1;" edge="1" parent="1">
          <mxGeometry width="50" height="50" relative="1" as="geometry">
            <mxPoint x="1372" y="175" as="sourcePoint" />
            <mxPoint x="1691.5" y="175" as="targetPoint" />
          </mxGeometry>
        </mxCell>
        <mxCell id="86tsJE7q6GDOUqFHb6td-39" value="&lt;span style=&quot;color: rgb(0, 0, 0); font-family: helvetica; font-size: 11px; font-style: normal; font-weight: 400; letter-spacing: normal; text-align: center; text-indent: 0px; text-transform: none; word-spacing: 0px; background-color: rgb(255, 255, 255); display: inline; float: none;&quot;&gt;FetchEligibleEmployeeRecords()&lt;/span&gt;" style="text;whiteSpace=wrap;html=1;" vertex="1" parent="1">
          <mxGeometry x="1452" y="152" width="190" height="30" as="geometry" />
        </mxCell>
        <mxCell id="86tsJE7q6GDOUqFHb6td-40" value="{EmployeeRecords}" style="html=1;verticalAlign=bottom;endArrow=open;dashed=1;endSize=8;exitX=0.9;exitY=0.988;exitDx=0;exitDy=0;exitPerimeter=0;" edge="1" parent="1">
          <mxGeometry x="0.0172" relative="1" as="geometry">
            <mxPoint x="1694" y="255.03999999999996" as="sourcePoint" />
            <mxPoint x="1380" y="255" as="targetPoint" />
            <mxPoint as="offset" />
          </mxGeometry>
        </mxCell>
        <mxCell id="86tsJE7q6GDOUqFHb6td-41" value="" style="aspect=fixed;pointerEvents=1;shadow=0;dashed=0;html=1;strokeColor=none;labelPosition=center;verticalLabelPosition=bottom;verticalAlign=top;align=center;fillColor=#00188D;shape=mxgraph.mscae.enterprise.lock" vertex="1" parent="1">
          <mxGeometry x="1590" y="237" width="12.48" height="16" as="geometry" />
        </mxCell>
        <mxCell id="86tsJE7q6GDOUqFHb6td-42" value="" style="aspect=fixed;pointerEvents=1;shadow=0;dashed=0;html=1;strokeColor=none;labelPosition=center;verticalLabelPosition=bottom;verticalAlign=top;align=center;fillColor=#00188D;shape=mxgraph.mscae.enterprise.lock" vertex="1" parent="1">
          <mxGeometry x="1290" y="237" width="12.48" height="16" as="geometry" />
        </mxCell>
        <mxCell id="86tsJE7q6GDOUqFHb6td-43" value="" style="aspect=fixed;pointerEvents=1;shadow=0;dashed=0;html=1;strokeColor=none;labelPosition=center;verticalLabelPosition=bottom;verticalAlign=top;align=center;fillColor=#00188D;shape=mxgraph.mscae.enterprise.lock" vertex="1" parent="1">
          <mxGeometry x="790" y="237" width="12.48" height="16" as="geometry" />
        </mxCell>
        <mxCell id="86tsJE7q6GDOUqFHb6td-46" value="" style="aspect=fixed;pointerEvents=1;shadow=0;dashed=0;html=1;strokeColor=none;labelPosition=center;verticalLabelPosition=bottom;verticalAlign=top;align=center;fillColor=#00188D;shape=mxgraph.mscae.enterprise.lock_unlocked" vertex="1" parent="1">
          <mxGeometry x="315" y="300" width="12.58" height="17" as="geometry" />
        </mxCell>
        <mxCell id="86tsJE7q6GDOUqFHb6td-47" value="Rest API" style="text;html=1;align=center;verticalAlign=middle;resizable=0;points=[];autosize=1;fillColor=#f8cecc;strokeColor=#b85450;" vertex="1" parent="1">
          <mxGeometry x="968" y="175" width="60" height="20" as="geometry" />
        </mxCell>
        <mxCell id="86tsJE7q6GDOUqFHb6td-49" value="Rest API" style="text;html=1;align=center;verticalAlign=middle;resizable=0;points=[];autosize=1;fillColor=#f8cecc;strokeColor=#b85450;" vertex="1" parent="1">
          <mxGeometry x="968" y="255" width="60" height="20" as="geometry" />
        </mxCell>
        <mxCell id="86tsJE7q6GDOUqFHb6td-51" value="{Response}" style="html=1;verticalAlign=bottom;endArrow=open;dashed=1;endSize=8;exitX=0.7;exitY=1.025;exitDx=0;exitDy=0;exitPerimeter=0;" edge="1" parent="1" source="86tsJE7q6GDOUqFHb6td-12" target="86tsJE7q6GDOUqFHb6td-6">
          <mxGeometry relative="1" as="geometry">
            <mxPoint x="490" y="290" as="sourcePoint" />
            <mxPoint x="410" y="290" as="targetPoint" />
          </mxGeometry>
        </mxCell>
        <mxCell id="86tsJE7q6GDOUqFHb6td-52" value="{Response}" style="html=1;verticalAlign=bottom;endArrow=open;dashed=1;endSize=8;" edge="1" parent="1" target="86tsJE7q6GDOUqFHb6td-2">
          <mxGeometry relative="1" as="geometry">
            <mxPoint x="590" y="480" as="sourcePoint" />
            <mxPoint x="410" y="290" as="targetPoint" />
          </mxGeometry>
        </mxCell>
        <mxCell id="86tsJE7q6GDOUqFHb6td-53" value="{Response}" style="html=1;verticalAlign=bottom;endArrow=open;dashed=1;endSize=8;" edge="1" parent="1" target="86tsJE7q6GDOUqFHb6td-13">
          <mxGeometry relative="1" as="geometry">
            <mxPoint x="370" y="480" as="sourcePoint" />
            <mxPoint x="410" y="290" as="targetPoint" />
          </mxGeometry>
        </mxCell>
        <mxCell id="86tsJE7q6GDOUqFHb6td-54" value="Is Response Success &amp;amp;&amp;amp; Retry Count Eligible" style="shape=umlFrame;whiteSpace=wrap;html=1;width=70;height=80;" vertex="1" parent="1">
          <mxGeometry x="70" y="520" width="810" height="210" as="geometry" />
        </mxCell>
        <mxCell id="86tsJE7q6GDOUqFHb6td-82" value="" style="html=1;points=[];perimeter=orthogonalPerimeter;rounded=0;shadow=0;comic=0;labelBackgroundColor=none;strokeWidth=1;fontFamily=Verdana;fontSize=12;align=center;" vertex="1" parent="1">
          <mxGeometry x="364.75" y="621" width="10" height="79" as="geometry" />
        </mxCell>
        <mxCell id="86tsJE7q6GDOUqFHb6td-83" value="" style="html=1;points=[];perimeter=orthogonalPerimeter;" vertex="1" parent="1">
          <mxGeometry x="586" y="621" width="10" height="79" as="geometry" />
        </mxCell>
        <mxCell id="86tsJE7q6GDOUqFHb6td-84" value="" style="html=1;points=[];perimeter=orthogonalPerimeter;" vertex="1" parent="1">
          <mxGeometry x="843" y="620" width="10" height="79" as="geometry" />
        </mxCell>
        <mxCell id="86tsJE7q6GDOUqFHb6td-85" value="" style="html=1;points=[];perimeter=orthogonalPerimeter;rounded=0;shadow=0;comic=0;labelBackgroundColor=none;strokeWidth=1;fontFamily=Verdana;fontSize=12;align=center;" vertex="1" parent="1">
          <mxGeometry x="148" y="621" width="10" height="78" as="geometry" />
        </mxCell>
        <mxCell id="86tsJE7q6GDOUqFHb6td-86" value="&lt;font face=&quot;Helvetica&quot; style=&quot;font-size: 11px&quot;&gt;CreateOrUpdateEmployees()&lt;/font&gt;" style="html=1;verticalAlign=bottom;endArrow=block;entryX=0;entryY=0;labelBackgroundColor=none;fontFamily=Verdana;fontSize=12;edgeStyle=elbowEdgeStyle;elbow=vertical;" edge="1" parent="1" source="86tsJE7q6GDOUqFHb6td-85" target="86tsJE7q6GDOUqFHb6td-82">
          <mxGeometry relative="1" as="geometry">
            <mxPoint x="214.75" y="631" as="sourcePoint" />
          </mxGeometry>
        </mxCell>
        <mxCell id="86tsJE7q6GDOUqFHb6td-87" value="&lt;span style=&quot;background-color: rgb(248 , 249 , 250)&quot;&gt;CreateOrUpdateEmployees()&lt;/span&gt;" style="html=1;verticalAlign=bottom;endArrow=block;" edge="1" parent="1">
          <mxGeometry width="80" relative="1" as="geometry">
            <mxPoint x="369.75" y="621" as="sourcePoint" />
            <mxPoint x="586" y="621" as="targetPoint" />
            <Array as="points">
              <mxPoint x="401" y="621" />
            </Array>
          </mxGeometry>
        </mxCell>
        <mxCell id="86tsJE7q6GDOUqFHb6td-88" value="&lt;span style=&quot;background-color: rgb(248 , 249 , 250)&quot;&gt;CreateOrUpdateEmployees()&lt;/span&gt;" style="html=1;verticalAlign=bottom;endArrow=block;exitX=0.7;exitY=0;exitDx=0;exitDy=0;exitPerimeter=0;" edge="1" parent="1" source="86tsJE7q6GDOUqFHb6td-83" target="86tsJE7q6GDOUqFHb6td-84">
          <mxGeometry x="-0.293" width="80" relative="1" as="geometry">
            <mxPoint x="714" y="634" as="sourcePoint" />
            <mxPoint x="794" y="634" as="targetPoint" />
            <mxPoint as="offset" />
          </mxGeometry>
        </mxCell>
        <mxCell id="86tsJE7q6GDOUqFHb6td-89" value="{Response}" style="html=1;verticalAlign=bottom;endArrow=open;dashed=1;endSize=8;exitX=0.7;exitY=1.025;exitDx=0;exitDy=0;exitPerimeter=0;" edge="1" parent="1" source="86tsJE7q6GDOUqFHb6td-84">
          <mxGeometry relative="1" as="geometry">
            <mxPoint x="490" y="510" as="sourcePoint" />
            <mxPoint x="589.5" y="700.975" as="targetPoint" />
          </mxGeometry>
        </mxCell>
        <mxCell id="86tsJE7q6GDOUqFHb6td-90" value="{Response}" style="html=1;verticalAlign=bottom;endArrow=open;dashed=1;endSize=8;" edge="1" parent="1">
          <mxGeometry relative="1" as="geometry">
            <mxPoint x="590" y="700" as="sourcePoint" />
            <mxPoint x="369.5" y="700" as="targetPoint" />
          </mxGeometry>
        </mxCell>
        <mxCell id="86tsJE7q6GDOUqFHb6td-91" value="{Response}" style="html=1;verticalAlign=bottom;endArrow=open;dashed=1;endSize=8;" edge="1" parent="1">
          <mxGeometry relative="1" as="geometry">
            <mxPoint x="370" y="700" as="sourcePoint" />
            <mxPoint x="152.5" y="700" as="targetPoint" />
          </mxGeometry>
        </mxCell>
      </root>
    </mxGraphModel>
  </diagram>
</mxfile>
